<mxfile host="app.diagrams.net" modified="2024-01-10T07:09:22.390Z" agent="Mozilla/5.0 (Windows NT 10.0; Win64; x64) AppleWebKit/537.36 (KHTML, like Gecko) Chrome/120.0.0.0 Safari/537.36" version="22.1.18" etag="bwhspH9UGKdoZVAEFORs" type="github">
  <diagram name="第 1 页" id="U7sybSRnqge9UdC9qBEp">
    <mxGraphModel>
      <root>
        <mxCell id="0" />
        <mxCell id="1" parent="0" />
      </root>
    </mxGraphModel>
  </diagram>
</mxfile>
